<svg width="490" height="393" viewBox="0 0 490 393" fill="none" xmlns="http://www.w3.org/2000/svg">
<circle cx="308.693" cy="150.623" r="75" transform="rotate(10.3276 308.693 150.623)" fill="#FDB813"/>
<path d="M403.085 197.606L361.431 206.286L384.538 159.313L403.085 197.606Z" fill="#FF6600"/>
<path d="M414.971 127.355L380.814 160.586L370.02 111.53L414.971 127.355Z" fill="#FF6600"/>
<path d="M203.532 113.904L249.845 102.675L234.178 150.398L203.532 113.904Z" fill="#FF6600"/>
<path d="M379.739 66.4945L371.178 113.374L333.94 79.6644L379.739 66.4945Z" fill="#FF6600"/>
<path d="M314.433 39.9086L336.875 81.9487L286.751 78.6987L314.433 39.9086Z" fill="#FF6600"/>
<path d="M246.252 57.9694L289.51 77.9638L247.571 105.606L246.252 57.9694Z" fill="#FF6600"/>
<ellipse cx="138.462" cy="191.726" rx="68.4621" ry="49.6935" fill="#D0CCCC"/>
<ellipse cx="146.661" cy="250.339" rx="68.4621" ry="49.6935" fill="#D0CCCC"/>
<ellipse cx="244.23" cy="250.339" rx="68.4621" ry="49.6935" fill="#D0CCCC"/>
<ellipse cx="347.538" cy="250.339" rx="68.4621" ry="49.6935" fill="#D0CCCC"/>
<ellipse cx="244.462" cy="183.726" rx="68.4621" ry="49.6935" fill="#D0CCCC"/>
<ellipse cx="347.538" cy="191.726" rx="68.4621" ry="49.6935" fill="#D0CCCC"/>
<ellipse cx="131.808" cy="226.114" rx="68.4621" ry="49.6935" fill="#D0CCCC"/>
<ellipse cx="360.891" cy="221.467" rx="68.4621" ry="49.6935" fill="#D0CCCC"/>
<path d="M121.539 211.626C121.461 211.892 121.312 212.095 121.094 212.235C120.875 212.36 120.633 212.423 120.367 212.423C120.008 212.423 119.711 212.29 119.477 212.024C119.242 211.759 119.125 211.493 119.125 211.227C119.125 211.102 119.156 210.977 119.219 210.852L120.719 206.47C120.328 205.845 119.852 205.251 119.289 204.688C118.742 204.11 118.141 203.602 117.484 203.165C116.828 202.727 116.133 202.384 115.398 202.134C114.664 201.868 113.922 201.735 113.172 201.735C111.75 201.735 110.477 201.954 109.352 202.392C108.242 202.829 107.266 203.423 106.422 204.173C105.594 204.923 104.883 205.806 104.289 206.821C103.695 207.821 103.211 208.892 102.836 210.032C102.477 211.173 102.211 212.352 102.039 213.571C101.883 214.774 101.805 215.962 101.805 217.134C101.805 218.149 101.859 219.235 101.969 220.392C102.078 221.532 102.266 222.681 102.531 223.837C102.797 224.977 103.148 226.079 103.586 227.142C104.023 228.188 104.562 229.118 105.203 229.931C105.859 230.743 106.625 231.392 107.5 231.876C108.375 232.36 109.391 232.602 110.547 232.602C111.906 232.602 113.195 232.407 114.414 232.017C115.648 231.626 116.766 231.071 117.766 230.352C118.781 229.618 119.664 228.743 120.414 227.727C121.18 226.712 121.773 225.579 122.195 224.329C122.273 224.048 122.422 223.821 122.641 223.649C122.859 223.462 123.109 223.368 123.391 223.368C123.734 223.368 124.023 223.501 124.258 223.767C124.492 224.032 124.609 224.321 124.609 224.634V224.915C124.594 224.946 124.539 225.102 124.445 225.384C124.367 225.665 124.227 226.032 124.023 226.485C123.836 226.923 123.578 227.431 123.25 228.009C122.938 228.571 122.539 229.157 122.055 229.767C121.336 230.657 120.531 231.431 119.641 232.087C118.75 232.743 117.805 233.29 116.805 233.727C115.82 234.165 114.797 234.493 113.734 234.712C112.672 234.931 111.609 235.04 110.547 235.04C107.875 234.993 105.477 234.563 103.352 233.751C101.242 232.923 99.4453 231.774 97.9609 230.306C96.4922 228.821 95.3594 227.04 94.5625 224.962C93.7812 222.884 93.3906 220.563 93.3906 218.001C93.3906 215.626 93.6406 213.509 94.1406 211.649C94.6406 209.79 95.3203 208.165 96.1797 206.774C97.0547 205.368 98.0781 204.181 99.25 203.212C100.422 202.227 101.664 201.431 102.977 200.821C104.305 200.212 105.68 199.774 107.102 199.509C108.523 199.227 109.922 199.087 111.297 199.087C112.672 199.087 113.906 199.235 115 199.532C116.094 199.813 117.07 200.181 117.93 200.634C118.789 201.087 119.523 201.587 120.133 202.134C120.758 202.665 121.273 203.173 121.68 203.657L122.969 199.954C123.062 199.688 123.219 199.477 123.438 199.321C123.656 199.165 123.883 199.087 124.117 199.087C124.461 199.087 124.75 199.22 124.984 199.485C125.234 199.735 125.359 200.017 125.359 200.329C125.359 200.47 125.328 200.602 125.266 200.727L121.539 211.626ZM141.602 234.36H141.367C140.742 234.251 140.172 234.157 139.656 234.079C139.141 234.001 138.648 233.946 138.18 233.915C137.711 233.868 137.234 233.837 136.75 233.821C136.281 233.806 135.773 233.798 135.227 233.798C134.117 233.798 133.039 233.845 131.992 233.938C130.945 234.017 129.797 234.173 128.547 234.407H128.312C127.922 234.407 127.625 234.282 127.422 234.032C127.219 233.798 127.117 233.509 127.117 233.165C127.117 232.884 127.203 232.634 127.375 232.415C127.547 232.196 127.781 232.048 128.078 231.97C128.656 231.876 129.18 231.806 129.648 231.759C130.117 231.696 130.617 231.642 131.148 231.595V202.977C130.164 202.899 129.453 202.829 129.016 202.767C128.594 202.688 128.344 202.649 128.266 202.649C127.953 202.602 127.695 202.462 127.492 202.227C127.305 201.993 127.211 201.727 127.211 201.431C127.211 201.024 127.352 200.72 127.633 200.517C127.914 200.298 128.188 200.188 128.453 200.188H128.594C128.609 200.188 128.75 200.212 129.016 200.259C129.281 200.29 129.641 200.337 130.094 200.399C130.562 200.446 131.109 200.493 131.734 200.54C132.375 200.571 133.07 200.587 133.82 200.587C134.57 200.587 135.305 200.563 136.023 200.517C136.742 200.454 137.398 200.36 137.992 200.235C138.039 200.204 138.125 200.188 138.25 200.188C138.609 200.188 138.906 200.321 139.141 200.587C139.375 200.837 139.492 201.118 139.492 201.431L139.445 231.595C139.711 231.626 139.93 231.657 140.102 231.688C140.289 231.704 140.461 231.727 140.617 231.759C140.789 231.774 140.961 231.798 141.133 231.829C141.32 231.845 141.555 231.876 141.836 231.923C142.133 232.001 142.375 232.149 142.562 232.368C142.75 232.587 142.844 232.837 142.844 233.118C142.844 233.477 142.711 233.774 142.445 234.009C142.195 234.243 141.914 234.36 141.602 234.36ZM168.32 222.454C168.32 221.688 168.234 220.915 168.062 220.134C167.891 219.352 167.641 218.595 167.312 217.86C166.984 217.126 166.586 216.438 166.117 215.798C165.648 215.157 165.117 214.602 164.523 214.134C163.945 213.649 163.305 213.274 162.602 213.009C161.914 212.727 161.18 212.587 160.398 212.587C159.523 212.587 158.758 212.735 158.102 213.032C157.461 213.313 156.898 213.704 156.414 214.204C155.93 214.688 155.531 215.251 155.219 215.892C154.906 216.532 154.656 217.212 154.469 217.931C154.281 218.649 154.148 219.376 154.07 220.11C153.992 220.845 153.953 221.548 153.953 222.22C153.953 222.907 153.984 223.642 154.047 224.423C154.109 225.188 154.219 225.954 154.375 226.72C154.531 227.47 154.742 228.196 155.008 228.899C155.273 229.602 155.617 230.22 156.039 230.751C156.461 231.282 156.969 231.704 157.562 232.017C158.172 232.329 158.891 232.485 159.719 232.485C161.078 232.485 162.289 232.204 163.352 231.642C164.43 231.063 165.336 230.306 166.07 229.368C166.805 228.431 167.359 227.36 167.734 226.157C168.125 224.954 168.32 223.72 168.32 222.454ZM170.758 222.454C170.758 224.329 170.422 226.048 169.75 227.61C169.078 229.173 168.172 230.517 167.031 231.642C165.891 232.751 164.555 233.618 163.023 234.243C161.508 234.868 159.906 235.181 158.219 235.181C156.312 235.181 154.586 234.876 153.039 234.267C151.508 233.673 150.195 232.821 149.102 231.712C148.008 230.602 147.164 229.267 146.57 227.704C145.992 226.142 145.703 224.392 145.703 222.454C145.703 220.61 146.023 218.907 146.664 217.345C147.305 215.782 148.188 214.438 149.312 213.313C150.438 212.173 151.758 211.29 153.273 210.665C154.805 210.024 156.453 209.704 158.219 209.704C160.062 209.704 161.75 210.048 163.281 210.735C164.828 211.407 166.156 212.329 167.266 213.501C168.375 214.657 169.234 216.009 169.844 217.556C170.453 219.102 170.758 220.735 170.758 222.454ZM204.859 210.806C204.859 211.087 204.766 211.345 204.578 211.579C204.406 211.813 204.164 211.954 203.852 212.001C203.305 212.126 202.758 212.227 202.211 212.306C201.664 212.368 201.125 212.438 200.594 212.517L200.219 231.923C200.766 231.923 201.32 231.938 201.883 231.97C202.461 231.985 203.023 232.032 203.57 232.11C203.914 232.142 204.18 232.282 204.367 232.532C204.57 232.767 204.672 233.024 204.672 233.306C204.672 233.696 204.539 234.001 204.273 234.22C204.023 234.454 203.758 234.571 203.477 234.571H203.336C202.695 234.493 202.062 234.438 201.438 234.407C200.828 234.376 200.227 234.36 199.633 234.36C198.555 234.36 197.484 234.415 196.422 234.524C195.375 234.634 194.336 234.806 193.305 235.04H193.047C192.719 235.04 192.43 234.915 192.18 234.665C191.93 234.431 191.805 234.157 191.805 233.845V233.798L191.945 229.509C190.961 231.306 189.812 232.681 188.5 233.634C187.188 234.571 185.727 235.04 184.117 235.04C183.102 235.04 182.203 234.876 181.422 234.548C180.656 234.22 179.977 233.782 179.383 233.235C178.805 232.673 178.312 232.032 177.906 231.313C177.516 230.579 177.195 229.813 176.945 229.017C176.711 228.204 176.539 227.384 176.43 226.556C176.32 225.727 176.266 224.938 176.266 224.188C176.266 222.142 176.461 220.134 176.852 218.165C177.258 216.196 177.859 214.337 178.656 212.587L174.438 212.47C174.094 212.438 173.805 212.313 173.57 212.095C173.352 211.86 173.242 211.571 173.242 211.227C173.242 210.915 173.359 210.642 173.594 210.407C173.828 210.157 174.125 210.032 174.484 210.032L180.672 210.173C181.016 210.22 181.297 210.36 181.516 210.595C181.75 210.813 181.867 211.087 181.867 211.415C181.867 211.54 181.844 211.657 181.797 211.767C181.766 211.86 181.727 211.954 181.68 212.048C181.383 212.345 181.102 212.79 180.836 213.384C180.57 213.977 180.328 214.657 180.109 215.423C179.891 216.173 179.695 216.977 179.523 217.837C179.352 218.681 179.203 219.509 179.078 220.321C178.953 221.118 178.859 221.86 178.797 222.548C178.734 223.235 178.703 223.798 178.703 224.235C178.703 225.204 178.781 226.188 178.938 227.188C179.109 228.173 179.398 229.071 179.805 229.884C180.211 230.681 180.758 231.337 181.445 231.852C182.133 232.352 183.008 232.602 184.07 232.602C185.023 232.602 185.93 232.329 186.789 231.782C187.648 231.22 188.422 230.423 189.109 229.392C189.812 228.36 190.422 227.102 190.938 225.618C191.469 224.134 191.891 222.462 192.203 220.602L192.484 211.181C192.484 210.837 192.617 210.563 192.883 210.36C193.148 210.142 193.43 210.032 193.727 210.032H193.867C194.398 210.11 194.938 210.165 195.484 210.196C196.031 210.212 196.602 210.22 197.195 210.22C198.148 210.22 199.141 210.173 200.172 210.079C201.219 209.985 202.305 209.829 203.43 209.61C203.461 209.61 203.492 209.602 203.523 209.587C203.555 209.571 203.586 209.563 203.617 209.563C203.977 209.563 204.273 209.696 204.508 209.962C204.742 210.212 204.859 210.493 204.859 210.806ZM225.344 216.36C225.109 215.657 224.758 215.048 224.289 214.532C223.82 214.017 223.281 213.587 222.672 213.243C222.078 212.899 221.438 212.649 220.75 212.493C220.062 212.321 219.367 212.235 218.664 212.235C217.602 212.235 216.656 212.407 215.828 212.751C215 213.079 214.273 213.532 213.648 214.11C213.023 214.673 212.484 215.337 212.031 216.102C211.594 216.852 211.234 217.649 210.953 218.493C210.672 219.321 210.469 220.173 210.344 221.048C210.219 221.923 210.156 222.767 210.156 223.579C210.172 224.72 210.328 225.821 210.625 226.884C210.938 227.931 211.391 228.868 211.984 229.696C212.594 230.509 213.328 231.165 214.188 231.665C215.062 232.149 216.07 232.392 217.211 232.392C218.258 232.392 219.188 232.149 220 231.665C220.812 231.165 221.523 230.54 222.133 229.79C222.758 229.04 223.281 228.22 223.703 227.329C224.125 226.423 224.461 225.563 224.711 224.751C224.961 223.923 225.133 223.196 225.227 222.571C225.336 221.931 225.375 221.509 225.344 221.306V216.36ZM236.523 233.938H236.43C236.039 233.907 235.648 233.884 235.258 233.868C234.883 233.852 234.516 233.845 234.156 233.845C233.156 233.845 232.219 233.892 231.344 233.985C230.469 234.079 229.703 234.181 229.047 234.29C228.406 234.415 227.891 234.524 227.5 234.618C227.125 234.712 226.93 234.759 226.914 234.759C226.867 234.79 226.812 234.806 226.75 234.806C226.688 234.806 226.633 234.806 226.586 234.806C226.227 234.806 225.93 234.673 225.695 234.407C225.461 234.157 225.344 233.876 225.344 233.563V229.579C224.984 230.329 224.523 231.024 223.961 231.665C223.414 232.306 222.797 232.86 222.109 233.329C221.422 233.798 220.664 234.165 219.836 234.431C219.023 234.712 218.172 234.852 217.281 234.852C215.781 234.852 214.445 234.548 213.273 233.938C212.102 233.329 211.102 232.517 210.273 231.501C209.461 230.47 208.836 229.274 208.398 227.915C207.961 226.556 207.734 225.126 207.719 223.626C207.719 222.454 207.812 221.306 208 220.181C208.203 219.04 208.508 217.962 208.914 216.946C209.32 215.915 209.82 214.962 210.414 214.087C211.023 213.212 211.734 212.462 212.547 211.837C213.359 211.196 214.273 210.696 215.289 210.337C216.305 209.977 217.43 209.798 218.664 209.798C220.023 209.798 221.266 210.001 222.391 210.407C223.516 210.813 224.5 211.376 225.344 212.095V202.649C224.375 202.602 223.555 202.54 222.883 202.462C222.227 202.384 221.859 202.345 221.781 202.345C221.469 202.298 221.203 202.157 220.984 201.923C220.781 201.688 220.68 201.415 220.68 201.102C220.68 200.759 220.805 200.477 221.055 200.259C221.32 200.024 221.609 199.907 221.922 199.907H222.062C222.078 199.907 222.258 199.931 222.602 199.977C222.945 200.009 223.391 200.048 223.938 200.095C224.5 200.142 225.141 200.188 225.859 200.235C226.578 200.267 227.312 200.282 228.062 200.282C228.797 200.282 229.516 200.259 230.219 200.212C230.938 200.149 231.594 200.048 232.188 199.907H232.492C232.852 199.907 233.141 200.032 233.359 200.282C233.578 200.517 233.688 200.79 233.688 201.102V231.384H234.156C234.562 231.384 234.969 231.392 235.375 231.407C235.797 231.407 236.211 231.431 236.617 231.477C236.961 231.509 237.234 231.642 237.438 231.876C237.656 232.11 237.766 232.384 237.766 232.696C237.766 233.071 237.625 233.376 237.344 233.61C237.078 233.829 236.805 233.938 236.523 233.938ZM301.586 233.352C301.18 233.321 300.773 233.306 300.367 233.306C299.961 233.306 299.555 233.306 299.148 233.306C296.898 233.306 294.68 233.407 292.492 233.61C290.32 233.798 288.164 234.079 286.023 234.454H285.789C285.43 234.454 285.141 234.329 284.922 234.079C284.703 233.845 284.594 233.571 284.594 233.259C284.594 232.977 284.68 232.72 284.852 232.485C285.039 232.251 285.289 232.11 285.602 232.063C286.18 231.938 286.766 231.829 287.359 231.735C287.953 231.642 288.57 231.556 289.211 231.477C289.18 231.009 289.125 230.306 289.047 229.368C288.984 228.431 288.891 227.321 288.766 226.04C288.656 224.759 288.516 223.337 288.344 221.774C288.172 220.212 287.969 218.563 287.734 216.829C287.5 215.095 287.227 213.313 286.914 211.485C286.602 209.642 286.242 207.813 285.836 206.001C285.414 207.032 284.945 208.212 284.43 209.54C283.93 210.868 283.406 212.274 282.859 213.759C282.328 215.227 281.789 216.735 281.242 218.282C280.695 219.829 280.164 221.337 279.648 222.806C279.148 224.274 278.672 225.657 278.219 226.954C277.781 228.251 277.398 229.392 277.07 230.376C276.742 231.36 276.477 232.149 276.273 232.743C276.086 233.321 275.992 233.626 275.992 233.657C275.914 233.923 275.766 234.118 275.547 234.243C275.328 234.384 275.094 234.454 274.844 234.454C274.609 234.454 274.391 234.399 274.188 234.29C273.984 234.181 273.836 234.032 273.742 233.845L262.375 211.626C262.031 214.22 261.719 216.727 261.438 219.149C261.312 220.181 261.188 221.251 261.062 222.36C260.953 223.454 260.844 224.532 260.734 225.595C260.625 226.642 260.531 227.642 260.453 228.595C260.391 229.548 260.344 230.399 260.312 231.149C260.984 231.181 261.664 231.243 262.352 231.337C263.039 231.415 263.75 231.532 264.484 231.688C264.766 231.735 264.992 231.876 265.164 232.11C265.352 232.329 265.445 232.587 265.445 232.884C265.445 233.29 265.305 233.595 265.023 233.798C264.742 233.985 264.484 234.079 264.25 234.079H263.992C263.086 233.907 262.188 233.782 261.297 233.704C260.422 233.61 259.547 233.563 258.672 233.563C258 233.563 257.336 233.587 256.68 233.634C256.039 233.681 255.391 233.767 254.734 233.892H254.547C254.188 233.892 253.891 233.767 253.656 233.517C253.422 233.267 253.305 232.977 253.305 232.649C253.305 232.352 253.398 232.095 253.586 231.876C253.773 231.642 254.016 231.493 254.312 231.431C254.891 231.337 255.469 231.267 256.047 231.22C256.641 231.173 257.227 231.134 257.805 231.102C257.836 230.321 257.898 229.321 257.992 228.102C258.102 226.884 258.227 225.517 258.367 224.001C258.523 222.485 258.711 220.852 258.93 219.102C259.148 217.337 259.398 215.517 259.68 213.642C259.961 211.767 260.273 209.868 260.617 207.946C260.977 206.024 261.367 204.142 261.789 202.298C260.914 202.267 260.047 202.196 259.188 202.087C258.344 201.962 257.5 201.782 256.656 201.548C256.391 201.47 256.172 201.321 256 201.102C255.828 200.884 255.742 200.642 255.742 200.376C255.742 200.017 255.867 199.72 256.117 199.485C256.383 199.251 256.672 199.134 256.984 199.134C257.047 199.134 257.102 199.134 257.148 199.134C257.195 199.134 257.258 199.149 257.336 199.181C258.18 199.399 259.023 199.571 259.867 199.696C260.711 199.806 261.578 199.86 262.469 199.86C262.828 199.86 263.133 199.852 263.383 199.837C263.648 199.821 263.906 199.813 264.156 199.813C264.609 199.813 264.977 200.017 265.258 200.423L277.211 222.407C277.664 221.079 278.133 219.712 278.617 218.306C279.117 216.884 279.617 215.485 280.117 214.11C280.633 212.72 281.133 211.376 281.617 210.079C282.102 208.782 282.562 207.587 283 206.493C283.453 205.399 283.859 204.438 284.219 203.61C284.594 202.782 284.914 202.142 285.18 201.688C285.414 201.298 285.766 201.102 286.234 201.102C287.641 200.977 288.938 200.868 290.125 200.774C291.312 200.681 292.367 200.602 293.289 200.54C294.211 200.462 294.977 200.399 295.586 200.352C296.211 200.306 296.656 200.267 296.922 200.235C296.969 200.235 297.008 200.227 297.039 200.212C297.07 200.196 297.102 200.188 297.133 200.188C297.492 200.188 297.789 200.321 298.023 200.587C298.258 200.837 298.375 201.118 298.375 201.431C298.375 201.743 298.273 202.017 298.07 202.251C297.883 202.47 297.633 202.602 297.32 202.649C297.07 202.696 296.68 202.759 296.148 202.837C295.617 202.899 294.953 202.977 294.156 203.071C294.25 203.727 294.391 204.649 294.578 205.837C294.781 207.009 294.992 208.36 295.211 209.892C295.445 211.407 295.688 213.056 295.938 214.837C296.188 216.618 296.43 218.431 296.664 220.274C296.898 222.118 297.102 223.946 297.273 225.759C297.461 227.571 297.602 229.274 297.695 230.868H299.148C299.555 230.868 299.969 230.868 300.391 230.868C300.812 230.868 301.227 230.884 301.633 230.915C301.977 230.915 302.258 231.032 302.477 231.267C302.711 231.485 302.828 231.767 302.828 232.11C302.828 232.47 302.703 232.767 302.453 233.001C302.219 233.235 301.93 233.352 301.586 233.352ZM325.727 221.657V221.259C325.727 220.087 325.602 219.001 325.352 218.001C325.102 217.001 324.703 216.118 324.156 215.352C323.625 214.571 322.938 213.931 322.094 213.431C321.25 212.931 320.234 212.595 319.047 212.423C318.219 212.517 317.5 212.743 316.891 213.102C316.281 213.462 315.758 213.907 315.32 214.438C314.898 214.954 314.547 215.54 314.266 216.196C313.984 216.852 313.758 217.532 313.586 218.235C313.43 218.923 313.312 219.618 313.234 220.321C313.156 221.009 313.109 221.657 313.094 222.267C313.344 222.345 313.656 222.431 314.031 222.524C314.422 222.618 314.859 222.712 315.344 222.806C315.828 222.884 316.352 222.954 316.914 223.017C317.492 223.063 318.094 223.087 318.719 223.087C320.047 223.087 321.289 222.962 322.445 222.712C323.617 222.462 324.711 222.11 325.727 221.657ZM328.117 222.571C328.07 222.977 327.852 223.329 327.461 223.626C327.07 223.923 326.578 224.188 325.984 224.423C325.391 224.642 324.734 224.829 324.016 224.985C323.312 225.126 322.617 225.243 321.93 225.337C321.242 225.431 320.609 225.501 320.031 225.548C319.453 225.579 319 225.595 318.672 225.595C317.531 225.595 316.477 225.517 315.508 225.36C314.555 225.204 313.766 225.04 313.141 224.868C313.234 225.837 313.414 226.79 313.68 227.727C313.945 228.665 314.328 229.509 314.828 230.259C315.328 230.993 315.953 231.595 316.703 232.063C317.453 232.517 318.359 232.743 319.422 232.743C319.812 232.743 320.258 232.696 320.758 232.602C321.258 232.493 321.75 232.345 322.234 232.157C322.719 231.954 323.164 231.72 323.57 231.454C323.977 231.173 324.297 230.86 324.531 230.517C324.797 230.204 325.117 230.048 325.492 230.048C325.82 230.048 326.109 230.181 326.359 230.446C326.609 230.696 326.734 230.977 326.734 231.29C326.734 231.618 326.633 231.876 326.43 232.063C326.055 232.642 325.531 233.134 324.859 233.54C324.188 233.946 323.461 234.274 322.68 234.524C321.898 234.79 321.109 234.977 320.312 235.087C319.516 235.212 318.789 235.274 318.133 235.274C316.258 235.274 314.516 234.938 312.906 234.267C311.297 233.61 309.898 232.704 308.711 231.548C307.523 230.392 306.586 229.032 305.898 227.47C305.227 225.907 304.891 224.22 304.891 222.407C304.891 220.423 305.188 218.657 305.781 217.11C306.375 215.548 307.219 214.235 308.312 213.173C309.406 212.095 310.734 211.282 312.297 210.735C313.859 210.173 315.617 209.892 317.57 209.892C319.414 209.97 321 210.282 322.328 210.829C323.672 211.376 324.773 212.134 325.633 213.102C326.492 214.071 327.125 215.243 327.531 216.618C327.953 217.977 328.164 219.509 328.164 221.212C328.164 221.602 328.156 221.915 328.141 222.149C328.125 222.368 328.117 222.509 328.117 222.571ZM350.57 211.227C350.57 211.54 350.461 211.821 350.242 212.071C350.039 212.306 349.781 212.438 349.469 212.47C348.453 212.548 347.445 212.618 346.445 212.681C345.445 212.743 344.438 212.79 343.422 212.821V229.227C343.422 229.54 343.484 229.829 343.609 230.095C343.75 230.36 343.922 230.587 344.125 230.774C344.344 230.962 344.586 231.11 344.852 231.22C345.117 231.329 345.391 231.384 345.672 231.384C346.094 231.384 346.438 231.274 346.703 231.056C346.984 230.821 347.219 230.54 347.406 230.212C347.594 229.868 347.742 229.509 347.852 229.134C347.977 228.759 348.078 228.423 348.156 228.126C348.203 227.845 348.344 227.618 348.578 227.446C348.812 227.259 349.07 227.165 349.352 227.165C349.711 227.165 350 227.306 350.219 227.587C350.453 227.852 350.57 228.126 350.57 228.407V228.665C350.117 230.743 349.227 232.352 347.898 233.493C346.57 234.618 344.93 235.181 342.977 235.181C342.086 235.181 341.172 235.063 340.234 234.829C339.297 234.595 338.445 234.157 337.68 233.517C336.93 232.876 336.312 231.993 335.828 230.868C335.344 229.727 335.102 228.251 335.102 226.438V212.774C334.398 212.727 333.688 212.681 332.969 212.634C332.266 212.587 331.555 212.532 330.836 212.47C330.523 212.423 330.258 212.282 330.039 212.048C329.836 211.813 329.734 211.54 329.734 211.227C329.734 210.868 329.867 210.579 330.133 210.36C330.414 210.142 330.695 210.032 330.977 210.032H331.07C331.758 210.079 332.43 210.126 333.086 210.173C333.758 210.22 334.43 210.267 335.102 210.313V202.345C335.102 202.079 335.188 201.837 335.359 201.618C335.531 201.384 335.75 201.227 336.016 201.149L341.875 199.579C341.922 199.548 341.977 199.532 342.039 199.532C342.102 199.517 342.156 199.509 342.203 199.509C342.562 199.509 342.852 199.642 343.07 199.907C343.305 200.173 343.422 200.462 343.422 200.774V210.36C344.375 210.329 345.336 210.29 346.305 210.243C347.289 210.181 348.273 210.11 349.258 210.032H349.352C349.695 210.032 349.984 210.157 350.219 210.407C350.453 210.642 350.57 210.915 350.57 211.227ZM374.523 221.657V221.259C374.523 220.087 374.398 219.001 374.148 218.001C373.898 217.001 373.5 216.118 372.953 215.352C372.422 214.571 371.734 213.931 370.891 213.431C370.047 212.931 369.031 212.595 367.844 212.423C367.016 212.517 366.297 212.743 365.688 213.102C365.078 213.462 364.555 213.907 364.117 214.438C363.695 214.954 363.344 215.54 363.062 216.196C362.781 216.852 362.555 217.532 362.383 218.235C362.227 218.923 362.109 219.618 362.031 220.321C361.953 221.009 361.906 221.657 361.891 222.267C362.141 222.345 362.453 222.431 362.828 222.524C363.219 222.618 363.656 222.712 364.141 222.806C364.625 222.884 365.148 222.954 365.711 223.017C366.289 223.063 366.891 223.087 367.516 223.087C368.844 223.087 370.086 222.962 371.242 222.712C372.414 222.462 373.508 222.11 374.523 221.657ZM376.914 222.571C376.867 222.977 376.648 223.329 376.258 223.626C375.867 223.923 375.375 224.188 374.781 224.423C374.188 224.642 373.531 224.829 372.812 224.985C372.109 225.126 371.414 225.243 370.727 225.337C370.039 225.431 369.406 225.501 368.828 225.548C368.25 225.579 367.797 225.595 367.469 225.595C366.328 225.595 365.273 225.517 364.305 225.36C363.352 225.204 362.562 225.04 361.938 224.868C362.031 225.837 362.211 226.79 362.477 227.727C362.742 228.665 363.125 229.509 363.625 230.259C364.125 230.993 364.75 231.595 365.5 232.063C366.25 232.517 367.156 232.743 368.219 232.743C368.609 232.743 369.055 232.696 369.555 232.602C370.055 232.493 370.547 232.345 371.031 232.157C371.516 231.954 371.961 231.72 372.367 231.454C372.773 231.173 373.094 230.86 373.328 230.517C373.594 230.204 373.914 230.048 374.289 230.048C374.617 230.048 374.906 230.181 375.156 230.446C375.406 230.696 375.531 230.977 375.531 231.29C375.531 231.618 375.43 231.876 375.227 232.063C374.852 232.642 374.328 233.134 373.656 233.54C372.984 233.946 372.258 234.274 371.477 234.524C370.695 234.79 369.906 234.977 369.109 235.087C368.312 235.212 367.586 235.274 366.93 235.274C365.055 235.274 363.312 234.938 361.703 234.267C360.094 233.61 358.695 232.704 357.508 231.548C356.32 230.392 355.383 229.032 354.695 227.47C354.023 225.907 353.688 224.22 353.688 222.407C353.688 220.423 353.984 218.657 354.578 217.11C355.172 215.548 356.016 214.235 357.109 213.173C358.203 212.095 359.531 211.282 361.094 210.735C362.656 210.173 364.414 209.892 366.367 209.892C368.211 209.97 369.797 210.282 371.125 210.829C372.469 211.376 373.57 212.134 374.43 213.102C375.289 214.071 375.922 215.243 376.328 216.618C376.75 217.977 376.961 219.509 376.961 221.212C376.961 221.602 376.953 221.915 376.938 222.149C376.922 222.368 376.914 222.509 376.914 222.571ZM403.211 222.454C403.211 221.688 403.125 220.915 402.953 220.134C402.781 219.352 402.531 218.595 402.203 217.86C401.875 217.126 401.477 216.438 401.008 215.798C400.539 215.157 400.008 214.602 399.414 214.134C398.836 213.649 398.195 213.274 397.492 213.009C396.805 212.727 396.07 212.587 395.289 212.587C394.414 212.587 393.648 212.735 392.992 213.032C392.352 213.313 391.789 213.704 391.305 214.204C390.82 214.688 390.422 215.251 390.109 215.892C389.797 216.532 389.547 217.212 389.359 217.931C389.172 218.649 389.039 219.376 388.961 220.11C388.883 220.845 388.844 221.548 388.844 222.22C388.844 222.907 388.875 223.642 388.938 224.423C389 225.188 389.109 225.954 389.266 226.72C389.422 227.47 389.633 228.196 389.898 228.899C390.164 229.602 390.508 230.22 390.93 230.751C391.352 231.282 391.859 231.704 392.453 232.017C393.062 232.329 393.781 232.485 394.609 232.485C395.969 232.485 397.18 232.204 398.242 231.642C399.32 231.063 400.227 230.306 400.961 229.368C401.695 228.431 402.25 227.36 402.625 226.157C403.016 224.954 403.211 223.72 403.211 222.454ZM405.648 222.454C405.648 224.329 405.312 226.048 404.641 227.61C403.969 229.173 403.062 230.517 401.922 231.642C400.781 232.751 399.445 233.618 397.914 234.243C396.398 234.868 394.797 235.181 393.109 235.181C391.203 235.181 389.477 234.876 387.93 234.267C386.398 233.673 385.086 232.821 383.992 231.712C382.898 230.602 382.055 229.267 381.461 227.704C380.883 226.142 380.594 224.392 380.594 222.454C380.594 220.61 380.914 218.907 381.555 217.345C382.195 215.782 383.078 214.438 384.203 213.313C385.328 212.173 386.648 211.29 388.164 210.665C389.695 210.024 391.344 209.704 393.109 209.704C394.953 209.704 396.641 210.048 398.172 210.735C399.719 211.407 401.047 212.329 402.156 213.501C403.266 214.657 404.125 216.009 404.734 217.556C405.344 219.102 405.648 220.735 405.648 222.454Z" fill="#171717"/>
</svg>
