<svg width="490" height="393" viewBox="0 0 490 393" fill="none" xmlns="http://www.w3.org/2000/svg">
<circle cx="308.693" cy="150.623" r="75" transform="rotate(10.3276 308.693 150.623)" fill="#FDB813"/>
<path d="M403.085 197.606L361.431 206.286L384.538 159.313L403.085 197.606Z" fill="#FF6600"/>
<path d="M414.971 127.355L380.814 160.586L370.02 111.53L414.971 127.355Z" fill="#FF6600"/>
<path d="M203.532 113.904L249.845 102.675L234.178 150.398L203.532 113.904Z" fill="#FF6600"/>
<path d="M379.739 66.4945L371.178 113.374L333.94 79.6644L379.739 66.4945Z" fill="#FF6600"/>
<path d="M314.433 39.9086L336.875 81.9487L286.751 78.6987L314.433 39.9086Z" fill="#FF6600"/>
<path d="M246.252 57.9694L289.51 77.9638L247.571 105.606L246.252 57.9694Z" fill="#FF6600"/>
<ellipse cx="138.462" cy="191.726" rx="68.4621" ry="49.6935" fill="#D0CCCC"/>
<ellipse cx="146.661" cy="250.339" rx="68.4621" ry="49.6935" fill="#D0CCCC"/>
<ellipse cx="244.23" cy="250.339" rx="68.4621" ry="49.6935" fill="#D0CCCC"/>
<ellipse cx="347.538" cy="250.339" rx="68.4621" ry="49.6935" fill="#D0CCCC"/>
<ellipse cx="244.462" cy="183.726" rx="68.4621" ry="49.6935" fill="#D0CCCC"/>
<ellipse cx="347.538" cy="191.726" rx="68.4621" ry="49.6935" fill="#D0CCCC"/>
<ellipse cx="131.808" cy="226.114" rx="68.4621" ry="49.6935" fill="#D0CCCC"/>
<ellipse cx="360.891" cy="221.467" rx="68.4621" ry="49.6935" fill="#D0CCCC"/>
</svg>
